<svg width="267" height="267" viewBox="0 0 267 267" fill="none" xmlns="http://www.w3.org/2000/svg">
<path d="M0 53.9996V108H17.7333C27.3333 108 36.6667 108.4 38.4 108.8L41.3333 109.6V89.9996V70.3996L48.4 71.3329C55.6 72.2663 72.2667 75.5996 76.2667 76.7996C78 77.3329 79.3333 75.8663 81.8667 71.0663C90 55.0663 112.8 28.5329 128.267 16.7996L133.333 13.0663L138.267 16.7996C153.867 28.5329 176.667 55.0663 184.8 71.0663C187.333 75.8663 188.667 77.3329 190.4 76.7996C194.4 75.5996 211.067 72.2663 218.4 71.3329L225.333 70.3996V89.9996V109.6L228.4 108.8C230 108.4 239.333 108 249.067 108H266.667V53.9996V-0.000384092H133.333H0V53.9996Z" fill="#C2B2A0"/>
<path d="M124.267 37.9999C112.133 49.1999 92 75.8666 92 80.6666C92 81.3333 95.4667 83.4666 99.4667 85.1999C108.667 89.1999 120.667 96.7999 127.867 103.333L133.333 108.267L138.8 103.333C146 96.7999 158 89.1999 167.2 85.1999C171.2 83.4666 174.667 81.3333 174.667 80.6666C174.667 73.8666 138.933 30.6666 133.333 30.6666C132.667 30.6666 128.533 33.9999 124.267 37.9999Z" fill="#C2B2A0"/>
<path d="M53.3334 98.3997V111.333L60.2667 113.333L67.3334 115.333L69.4667 104.666C70.8 98.7997 72.1334 93.0663 72.6667 91.733C73.3334 89.9997 71.8667 89.1997 64.1334 87.4663C59.0667 86.2663 54.5334 85.333 54.1334 85.333C53.6 85.333 53.3334 91.1997 53.3334 98.3997Z" fill="#C2B2A0"/>
<path d="M201.6 87.5997C194.667 89.1997 193.333 89.9997 194 91.733C194.533 93.0663 195.867 98.7997 197.2 104.666L199.333 115.333L206.4 113.333L213.333 111.333V98.3997C213.333 88.7997 212.933 85.333 211.733 85.4663C210.8 85.4663 206.267 86.533 201.6 87.5997Z" fill="#C2B2A0"/>
<path d="M83.6 101.066C82.4 105.2 81.0667 111.333 80.6667 114.666L79.8667 120.666L87.3334 124.533C91.4667 126.666 99.3334 132.533 104.8 137.733L114.667 146.933L116.267 142.533C117.067 140 119.867 134.133 122.267 129.333L126.8 120.666L119.467 113.733C112.267 107.066 100.667 99.7331 90.5334 95.4664L85.6 93.4664L83.6 101.066Z" fill="#C2B2A0"/>
<path d="M168.267 99.333C160.933 103.2 152.667 108.666 147.867 113.2L139.733 120.666L144.267 129.333C146.8 134.133 149.6 140.133 150.4 142.666L152 147.2L157.733 141.333C164.533 134.266 176.8 125.066 182.533 122.666C186.8 120.933 186.8 120.8 186 114.133C185.467 110.4 184 104.133 182.8 100.266L180.667 93.0664L168.267 99.333Z" fill="#C2B2A0"/>
<path d="M12.5334 124.8C12.9334 127.733 13.6 133.733 14 138.4C17.3334 174.133 37.4667 205.6 64.6667 218.133C71.8667 221.467 92 227.333 89.8667 225.6C89.2 224.933 85.0667 221.733 80.6667 218.4C63.7334 205.6 49.0667 187.333 44 172.933C41.7334 166.667 41.3334 162 41.3334 144.133C41.3334 119.467 43.0667 122 24.2667 120.533L11.8667 119.6L12.5334 124.8Z" fill="#C2B2A0"/>
<path d="M236.667 120.933C224.4 122 225.333 120 225.333 144C225.333 162 224.933 166.667 222.667 172.933C217.6 187.333 202.933 205.6 186 218.4C181.6 221.733 177.467 224.933 176.8 225.6C174.667 227.333 194.8 221.467 202 218.133C229.467 205.467 249.2 174.267 252.533 138C253.067 132.8 253.733 126.667 254.133 124.267L254.8 120L248.4 120.267C244.933 120.4 239.6 120.667 236.667 120.933Z" fill="#C2B2A0"/>
<path d="M53.6 144.8C54.1333 159.867 54.8 166 56.5333 169.867C60.4 178.533 68.5333 189.467 77.6 198C92.9333 212.667 92.9333 212.667 84.9333 197.333C80.9333 189.6 76 178.8 74.1333 173.2C70.4 162.267 66.6667 142.667 66.6667 134.4C66.6667 129.067 65.6 128.133 56.4 125.867L53.0667 124.933L53.6 144.8Z" fill="#C2B2A0"/>
<path d="M205.333 127.2C201.2 128.666 200.667 129.466 200.267 134.133C198.8 155.466 192 178.4 181.333 198.266L174.533 211.066L180.933 205.6C189.467 198.533 198.4 188.8 203.867 180.8C211.067 170.4 213.333 161.066 213.333 141.866C213.333 123.866 213.6 124.266 205.333 127.2Z" fill="#C2B2A0"/>
<path d="M80 139.2C80 154.667 94.2667 191.733 106.4 207.733C108.667 210.667 108.8 210.4 108.267 197.733C108 190.533 108.4 180.133 109.067 174.667C110.267 165.733 110 164.133 107.867 160.4C104.667 155.2 89.3333 140.8 84 138C80.1333 136 80 136 80 139.2Z" fill="#C2B2A0"/>
<path d="M180.667 139.333C173.733 144 161.867 155.6 158.8 160.667C156.667 164.133 156.533 165.867 157.6 174.667C158.267 180.133 158.667 190.533 158.267 197.867C157.733 210.8 157.733 210.933 160.133 207.867C172.667 191.333 188.267 150.4 186.4 138.533C186 135.867 185.867 135.867 180.667 139.333Z" fill="#C2B2A0"/>
<path d="M0.133333 201.6L0 266.667H133.333H266.667L266.533 201.6C266.4 143.466 266.267 137.733 264.667 147.066C256.133 197.733 227.2 229.333 181.333 238.133C172 240 141.867 240.933 140.4 239.467C140 239.067 140.8 233.467 142.133 227.067C145.333 212.267 145.733 174 142.8 162.666C140.267 152.533 134.533 137.333 133.333 137.333C132.133 137.333 126.4 152.533 123.867 162.666C120.933 174 121.333 212.267 124.533 227.067C125.867 233.467 126.667 239.067 126.267 239.467C124.8 240.933 94.6667 240 85.3333 238.133C39.4667 229.333 10.5333 197.733 2 147.066C0.4 137.733 0.266667 143.466 0.133333 201.6Z" fill="#C2B2A0"/>
</svg>
